<svg xmlns="http://www.w3.org/2000/svg" version="1.1" xmlns:xlink="http://www.w3.org/1999/xlink" xmlns:svgjs="http://svgjs.com/svgjs" width="1440" height="560" preserveAspectRatio="none" viewBox="0 0 1440 560"><g mask="url(&quot;#SvgjsMask1034&quot;)" fill="none"><rect width="1440" height="560" x="0" y="0" fill="#0e2a47"></rect><path d="M0,531.583C109.586,532.878,221.534,545.826,320.431,498.601C426.249,448.072,526.325,369.078,569.027,259.866C611.047,152.399,561.616,35.825,546.084,-78.515C530.413,-193.878,562.105,-333.776,477.518,-413.772C392.308,-494.358,253.916,-460.976,136.728,-465.654C46.039,-469.274,-44.492,-472.081,-128.598,-437.966C-207.556,-405.939,-254.977,-331.439,-322.449,-279.404C-411.002,-211.111,-540.103,-185.903,-587.047,-84.405C-636.494,22.505,-622.879,154.976,-572.629,261.511C-522.61,367.556,-421.648,441.068,-315.601,491.084C-217.689,537.262,-108.247,530.304,0,531.583" fill="#0b2239"></path><path d="M1440 988.15C1527.443 989.238 1614.042 989.725 1695.143 957.011 1788.57 919.325 1895.641 878.8340000000001 1937.817 787.346 1980.0059999999999 695.829 1918.539 592.875 1909.268 492.529 1899.3690000000001 385.375 1953.914 257.037 1881.473 177.462 1808.77 97.59800000000001 1677.02 128.56400000000002 1569.425 119.21699999999998 1482.519 111.668 1399.705 116.99799999999999 1313.181 128.09500000000003 1209.908 141.33999999999997 1091.531 121.48000000000002 1013.582 190.507 934.421 260.608 912.868 378.257 911.297 483.984 909.83 582.707 954.671 673.734 1005.144 758.592 1051.382 836.3299999999999 1108.916 908.486 1188.905 950.712 1265.288 991.034 1353.634 987.075 1440 988.15" fill="#113255"></path></g><defs><mask id="SvgjsMask1034"><rect width="1440" height="560" fill="#ffffff"></rect></mask></defs></svg>